<?xml version="1.0" standalone="no"?><!DOCTYPE svg PUBLIC "-//W3C//DTD SVG 1.1//EN" "http://www.w3.org/Graphics/SVG/1.1/DTD/svg11.dtd"><svg t="1687542457320" class="icon" viewBox="0 0 1024 1024" version="1.1" xmlns="http://www.w3.org/2000/svg" p-id="4967" xmlns:xlink="http://www.w3.org/1999/xlink" width="200" height="200"><path d="M736 448c-87.466667 0-160-72.533333-160-160S648.533333 128 736 128 896 200.533333 896 288 823.466667 448 736 448z m0-277.333333c-64 0-117.333333 53.333333-117.333333 117.333333s53.333333 117.333333 117.333333 117.333333 117.333333-53.333333 117.333333-117.333333S800 170.666667 736 170.666667zM736 896c-87.466667 0-160-72.533333-160-160s72.533333-160 160-160 160 72.533333 160 160-72.533333 160-160 160z m0-277.333333c-64 0-117.333333 53.333333-117.333333 117.333333s53.333333 117.333333 117.333333 117.333333 117.333333-53.333333 117.333333-117.333333-53.333333-117.333333-117.333333-117.333333zM288 448C200.533333 448 128 375.466667 128 288S200.533333 128 288 128 448 200.533333 448 288 375.466667 448 288 448z m0-277.333333c-64 0-117.333333 53.333333-117.333333 117.333333s53.333333 117.333333 117.333333 117.333333 117.333333-53.333333 117.333333-117.333333S352 170.666667 288 170.666667zM288 896C200.533333 896 128 823.466667 128 736S200.533333 576 288 576s160 72.533333 160 160-72.533333 160-160 160z m0-277.333333c-64 0-117.333333 53.333333-117.333333 117.333333s53.333333 117.333333 117.333333 117.333333 117.333333-53.333333 117.333333-117.333333-53.333333-117.333333-117.333333-117.333333z" fill="#333333" p-id="4968"></path></svg>