<?xml version="1.0" standalone="no"?><!DOCTYPE svg PUBLIC "-//W3C//DTD SVG 1.1//EN" "http://www.w3.org/Graphics/SVG/1.1/DTD/svg11.dtd"><svg t="1687542612319" class="icon" viewBox="0 0 1024 1024" version="1.1" xmlns="http://www.w3.org/2000/svg" p-id="17407" xmlns:xlink="http://www.w3.org/1999/xlink" width="200" height="200"><path d="M606.857143 85.714286q-181.142857 69.142857-317.714286 207.142857t-204.571429 320.285714q-11.428571-50.857143-11.428571-100.571429 0-118.857143 58.571429-219.714286t159.142857-159.428571 219.428571-58.571429q46.857143 0 96.571429 10.857143zm153.714286 68q53.142857 37.142857 93.714286 88.571429-222.285714 64.571429-385.428571 228.857143t-226.571429 386.571429q-53.142857-41.142857-88.571429-92.571429 64-220.571429 225.714286-383.428571t381.142857-228zm-418.857143 762.285714q65.714286-203.428571 216.857143-355.428571t354-219.428571q22.857143 52.571429 30.857143 111.428571-166.857143 68.571429-294.857143 197.142857t-196 296q-58.857143-8-110.857143-29.714286zm609.142857 33.142857q-110.285714-28.571429-209.714286-65.714286-77.142857 48-165.714286 61.142857 62.285714-117.142857 156.571429-211.714286t210.857143-157.428571q-12 86.857143-57.714286 162.285714 37.142857 100 65.714286 211.428571z" p-id="17408"></path></svg>