<?xml version="1.0" standalone="no"?><!DOCTYPE svg PUBLIC "-//W3C//DTD SVG 1.1//EN" "http://www.w3.org/Graphics/SVG/1.1/DTD/svg11.dtd"><svg t="1687542702248" class="icon" viewBox="0 0 1024 1024" version="1.1" xmlns="http://www.w3.org/2000/svg" p-id="19890" xmlns:xlink="http://www.w3.org/1999/xlink" width="200" height="200"><path d="M505.600533 246.580049c1.999833 0.999917 3.5997 3.399717 5.9995 3.399717 2.199817 0 5.599534-0.799933 5.799517-2.99975 0.399967-2.799767-3.799684-4.599617-6.399467-5.799517-3.399717-1.399883-7.799351-1.999833-10.999084-0.199983-0.799933 0.399967-1.599867 1.399883-1.1999 2.199816 0.59995 2.599784 4.599617 2.199817 6.799434 3.399717z m-43.796354 3.399717c2.3998 0 3.999667-2.3998 5.999501-3.399717 2.199817-1.1999 6.199484-0.799933 6.999417-3.199733 0.399967-0.799933-0.399967-1.79985-1.1999-2.199817-3.199734-1.79985-7.599367-1.1999-10.999084 0.199983-2.599784 1.1999-6.799434 2.99975-6.399467 5.799517 0.199983 1.999833 3.5997 2.99975 5.599533 2.799767zM903.967364 807.533343c-7.199401-7.999334-10.599117-23.198068-14.398801-39.396719-3.5997-16.198651-7.799351-33.597203-20.998252-44.796271-2.599784-2.199817-5.199567-4.19965-7.999334-5.799517-2.599784-1.599867-5.39955-2.99975-8.199317-3.999667 18.398468-54.595454 11.199068-108.990925-7.399384-158.186829-22.798102-60.194988-62.594788-112.790609-92.992257-148.787611-34.197153-42.99642-67.394389-83.793023-66.794439-143.988012C686.185497 170.78636 695.384731 0.200563 533.598202 0.00058 328.815252-0.399387 380.01099 206.783363 377.811173 270.378068c-3.399717 46.796104-12.798934 83.59304-44.996254 129.389227-37.796853 44.996254-90.992424 117.590209-116.190326 193.383898-11.999001 35.797019-17.598535 72.193989-12.398967 106.591125-12.998918 11.599034-22.798102 29.397552-33.197236 40.396637-8.399301 8.599284-20.598285 11.799018-33.997169 16.598618s-27.997669 11.999001-36.99692 28.997585c-4.19965 7.799351-5.599534 16.198651-5.599534 24.797936 0 7.799351 1.1999 15.798685 2.3998 23.598035 2.3998 16.198651 4.999584 31.397386 1.599867 41.596536-10.399134 28.797602-11.799018 48.795937-4.399633 63.394722 7.599367 14.598784 22.798102 20.998252 40.196653 24.597952 34.597119 7.199401 81.593206 5.39955 118.590126 24.997919 39.596703 20.798268 79.793356 28.197652 111.790692 20.798268 23.198068-5.199567 42.196487-19.198402 51.795687-40.396637 24.997919-0.199983 52.595621-10.799101 96.591958-13.198901 29.797519-2.3998 67.194405 10.599117 110.190825 8.199318 1.1999 4.599617 2.799767 9.199234 4.999584 13.398884v0.199983c16.598618 33.397219 47.596037 48.595954 80.593289 45.996171 33.197236-2.599784 68.194322-21.998168 96.591958-55.795355 27.197735-32.797269 71.994006-46.396137 101.791525-64.394638 14.798768-8.999251 26.797769-20.198318 27.797685-36.596953 0.799933-16.398635-8.799267-34.597119-30.997419-59.395055zM511.40005 174.586044c19.598368-44.396303 68.394305-43.59637 87.992674-0.799934 12.998918 28.397636 7.199401 61.794855-8.599284 80.793273-3.199734-1.599867-11.799018-5.199567-25.197902-9.799184 2.199817-2.3998 6.199484-5.39955 7.79935-9.199234 9.599201-23.598035-0.399967-53.995504-18.198485-54.595454-14.598784-0.999917-27.797686 21.598202-23.598035 45.99617-8.199317-3.999667-18.798435-6.999417-25.997835-8.799267-1.999833-13.798851-0.59995-29.197569 5.799517-43.59637zM430.006827 151.587959c20.198318 0 41.596537 28.397636 38.19682 66.994421-6.999417 1.999833-14.198818 4.999584-20.398302 9.199235 2.3998-17.798518-6.599451-40.196653-19.198402-39.196737-16.798601 1.399883-19.598368 42.39647-3.5997 56.195321 1.999833 1.599867 3.799684-0.399967-11.799017 10.999084-31.197402-29.197569-20.998252-104.191325 16.798601-104.191324z m-27.197736 121.389892c12.398968-9.199234 27.197735-19.998335 28.197653-20.998251 9.399217-8.799267 26.997752-28.397636 55.795354-28.397636 14.198818 0 31.197402 4.599617 51.795687 17.798518 12.598951 8.199317 22.598118 8.799267 45.196237 18.598452 16.798601 6.999417 27.397719 19.398385 20.998252 36.396969-5.199567 14.198818-21.998168 28.797602-45.39622 36.196986-22.198152 7.199401-39.596703 31.997336-76.39364 29.797519-7.799351-0.399967-13.998834-1.999833-19.198401-4.19965-15.998668-6.999417-24.397969-20.798268-39.99667-29.997502-17.198568-9.599201-26.397802-20.798268-29.397552-30.597453-2.799767-9.799184 0-17.998501 8.3993-24.597952z m6.599451 667.944386c-5.39955 70.194156-87.79269 68.794272-150.587462 35.997003-59.795021-31.597369-137.188577-12.998918-152.987262-43.796353-4.7996-9.399217-4.7996-25.397885 5.199567-52.795605v-0.399966c4.7996-15.198735 1.1999-31.997336-1.1999-47.796021-2.3998-15.598701-3.5997-29.997502 1.79985-39.996669 6.999417-13.398884 16.998585-18.198485 29.597536-22.598119 20.598285-7.399384 23.598035-6.799434 39.196736-19.798351 10.999084-11.399051 18.998418-25.797852 28.597619-35.997003 10.199151-10.999084 19.998335-16.198651 35.397053-13.798851 16.198651 2.3998 30.197486 13.598868 43.796353 31.997335l39.196737 71.194073c18.998418 39.796686 86.192823 96.791941 81.993173 137.788527z m-2.799767-51.795687c-8.199317-13.198901-19.198402-27.197735-28.797602-39.196737 14.198818 0 28.397636-4.399634 33.397219-17.798518 4.599617-12.398968 0-29.797519-14.798768-49.795854-26.997752-36.39697-76.593623-64.994588-76.593622-64.994588-26.997752-16.798601-42.196487-37.396886-49.195904-59.795021s-5.9995-46.59612-0.59995-70.394139c10.399134-45.796187 37.196903-90.392474 54.395471-118.390143 4.599617-3.399717 1.599867 6.399467-17.398552 41.596537-16.998585 32.197319-48.795937 106.591125-5.199567 164.786279 1.1999-41.396553 10.999084-83.59304 27.597702-122.989759 23.998002-54.795438 74.593789-149.787528 78.593456-225.381235 2.199817 1.599867 9.199234 6.399467 12.398968 8.199318 9.199234 5.39955 16.198651 13.398884 25.197902 20.598285 24.797935 19.998335 56.995254 18.398468 84.79294 2.3998 12.398968-6.999417 22.398135-14.998751 31.797353-17.998502 19.798352-6.199484 35.597036-17.198568 44.596286-29.997502 15.398718 60.794938 51.395721 148.587628 74.393806 191.384065 12.198984 22.798102 36.596953 70.994089 47.196071 129.189243 6.599451-0.199983 13.998834 0.799933 21.798185 2.799767 27.597702-71.394056-23.398052-148.387645-46.596121-169.785863-9.399217-9.199234-9.799184-13.198901-5.199567-12.998918 25.197902 22.398135 58.395138 67.394389 70.394139 117.990176 5.599534 23.198068 6.599451 47.396054 0.799934 71.394056 32.797269 13.598868 71.794022 35.797019 61.394888 69.594205-4.399634-0.199983-6.399467 0-8.399301 0 6.399467-20.198318-7.799351-35.197069-45.596204-52.195654-39.196736-17.198568-71.994006-17.198568-76.593622 24.997919-24.197985 8.399301-36.596953 29.397552-42.796437 54.595454-5.599534 22.398135-7.199401 49.395887-8.799267 79.793356-0.999917 15.398718-7.199401 35.997003-13.598868 57.995172-64.194655 45.796187-153.387229 65.794522-228.580968 14.398801z m514.75714-22.998085c-1.79985 33.597203-82.39314 39.796686-126.389476 92.992257-26.397802 31.397386-58.795105 48.795937-87.19274 50.995754s-52.995587-9.599201-67.394389-38.596786c-9.399217-22.198152-4.7996-46.196154 2.199817-72.593956 7.399384-28.397636 18.398468-57.595205 19.798351-81.19324 1.599867-30.397469 3.399717-56.995254 8.399301-77.393556 5.199567-20.598285 13.198901-34.397136 27.397719-42.196487 0.59995-0.399967 1.399883-0.59995 1.999833-0.999916 1.599867 26.397802 14.598784 53.195571 37.59687 58.995088 25.197902 6.599451 61.394888-14.998751 76.793606-32.597286 17.998501-0.59995 31.397386-1.79985 45.196237 10.199151 19.798352 16.998585 14.198818 60.594955 34.197153 83.193073 21.198235 23.198068 27.997669 38.996753 27.397718 49.195904zM410.608442 297.37582c3.999667 3.799684 9.399217 8.999251 15.998668 14.198818 13.198901 10.399134 31.597369 21.198235 54.595454 21.198235 23.198068 0 44.996254-11.799018 63.594705-21.598202 9.799184-5.199567 21.798185-13.998834 29.597536-20.798268s11.799018-12.598951 6.199484-13.198901-5.199567 5.199567-11.999001 10.199151c-8.799267 6.399467-19.398385 14.798768-27.797686 19.598368-14.798768 8.399301-38.996753 20.398302-59.795021 20.398301s-37.396886-9.599201-49.795854-19.398385c-6.199484-4.999584-11.399051-9.999167-15.398718-13.798851-2.99975-2.799767-3.799684-9.199234-8.599284-9.799184-2.799767-0.199983-3.5997 7.399384 3.399717 12.998918z" p-id="19891"></path></svg>