<svg xmlns="http://www.w3.org/2000/svg" version="1.1" xmlns:xlink="http://www.w3.org/1999/xlink" xmlns:svgjs="http://svgjs.dev/svgjs" width="800" height="800" viewBox="0 0 800 800"><g transform="matrix(1,0,0,1,1.0594411101329797,2.025263157894699)"><svg viewBox="0 0 95 95" data-background-color="#ffffff" preserveAspectRatio="xMidYMid meet" height="800" width="800" xmlns="http://www.w3.org/2000/svg" xmlns:xlink="http://www.w3.org/1999/xlink"><g id="tight-bounds" transform="matrix(1,0,0,1,-0.12580863182829205,-0.24049999999999727)"><svg viewBox="0 0 95.25134841677765 95.481" height="95.481" width="95.25134841677765"><g><svg viewBox="0 0 95.25134841677765 95.481" height="95.481" width="95.25134841677765"><g><svg viewBox="0 0 95.25134841677765 95.481" height="95.481" width="95.25134841677765"><g><svg viewBox="0 0 95.25134841677765 95.481" height="95.481" width="95.25134841677765"><g><svg viewBox="0 0 95.25134841677765 95.481" height="95.481" width="95.25134841677765"><g><svg viewBox="0 0 95.25134841677765 95.481" height="95.481" width="95.25134841677765"><g><svg xmlns="http://www.w3.org/2000/svg" viewBox="8.493241828236298e-8 0.0327148 99.78270847996899 100.0232852" x="0" y="0" height="95.481" width="95.25134841677765" class="icon-icon-0" id="icon-0"><path d="M55.428 45.561C55.234 45.003 54.603 44.738 54.047 44.935 52.756 45.392 51.394 45.628 50.018 45.63 48.52 45.632 47.037 45.357 45.645 44.821 45.087 44.607 44.44 44.864 44.238 45.428L41.237 53.814C41.056 54.317 41.304 54.876 41.806 55.059 44.438 56.014 47.223 56.505 50.036 56.5 52.674 56.496 55.285 56.058 57.768 55.209 58.278 55.034 58.535 54.474 58.357 53.965L55.428 45.561Z" fill="#2257bf" data-fill-palette-color="accent"></path><path d="M61.015 61.593C60.802 60.98 60.069 60.73 59.499 61.04 59.438 61.073 59.376 61.106 59.313 61.139 56.603 62.571 53.599 63.358 50.534 63.44 47.47 63.522 44.428 62.897 41.645 61.613 41.105 61.364 40.577 61.091 40.063 60.796 39.501 60.473 38.766 60.716 38.547 61.327L35.774 69.077C35.604 69.552 35.813 70.079 36.267 70.298 36.511 70.415 36.76 70.532 37.015 70.65 41.341 72.645 46.068 73.617 50.831 73.489 55.123 73.374 59.339 72.369 63.214 70.543 63.667 70.329 63.877 69.806 63.712 69.333L61.015 61.593Z" fill="#2257bf" data-fill-palette-color="accent"></path><path d="M66.478 77.269C66.267 76.663 65.547 76.41 64.99 76.73 64.274 77.14 63.427 77.593 62.448 78.061 58.83 79.793 54.891 80.751 50.883 80.873 46.874 80.996 42.884 80.281 39.167 78.774 37.347 78.036 35.851 77.356 34.471 76.515 33.906 76.171 33.149 76.409 32.926 77.033L30.062 85.036C29.901 85.486 30.079 85.99 30.503 86.209 31.473 86.711 32.615 87.173 34.246 87.832 34.478 87.925 34.719 88.023 34.971 88.125 37.836 89.287 40.961 90.131 44 90.603 46.43 90.981 48.753 91.113 51.225 91.037 52.774 90.99 53.902 90.911 55.428 90.686 58.922 90.17 62.751 89.134 65.996 87.718L66.009 87.712C66.432 87.528 66.853 87.335 67.27 87.136 67.361 87.092 67.45 87.05 67.537 87.008 67.973 86.803 68.356 86.628 68.695 86.478 69.178 86.264 69.422 85.718 69.249 85.219L66.478 77.269Z" fill="#2257bf" data-fill-palette-color="accent"></path><path d="M44 90.603L50 100.056 55.428 90.686C53.902 90.911 52.774 90.99 51.225 91.037 48.753 91.113 46.43 90.981 44 90.603Z" fill="#2257bf" data-fill-palette-color="accent"></path><path fill-rule="evenodd" clip-rule="evenodd" d="M56.188 36C57.025 36 57.823 35.651 58.391 35.037L72.269 20.031C73.414 18.73 73.591 16.84 72.709 15.351L72.705 15.344C72.7 15.336 72.698 15.332 72.691 15.322 72.424 14.924 65.5 0.033 50 0.033 35.354 0.033 27.576 14.924 27.309 15.322 27.302 15.332 27.3 15.336 27.296 15.344L27.292 15.351C26.409 16.84 26.586 18.73 27.731 20.031L41.609 35.037C42.177 35.651 42.975 36 43.812 36L56.188 36ZM54.254 28C54.82 28 55.36 27.76 55.74 27.339L63.494 18.617C64.09 17.955 64.175 16.983 63.646 16.267 61.7 13.632 57 8.162 50 8.081 43 8 38.3 13.632 36.354 16.267 35.825 16.983 35.91 17.955 36.506 18.617L44.26 27.339C44.64 27.76 45.18 28.001 45.747 28.001L54.254 28Z" fill="#2257bf" data-fill-palette-color="accent"></path><path fill-rule="evenodd" clip-rule="evenodd" d="M80.92 23.169C80.157 22.272 78.79 22.229 77.969 23.073L61.883 39.593C61.344 40.148 61.172 40.963 61.442 41.687L80.588 93.055C80.909 93.914 82.12 93.925 82.456 93.072L99.644 49.406C99.869 48.834 99.82 48.193 99.503 47.667 98.097 45.33 93.97 38.622 90.5 34.5 86.269 29.474 82.768 25.346 80.92 23.169ZM77.475 35.673C78.279 34.828 79.621 34.854 80.405 35.683 80.499 35.783 80.591 35.885 80.695 35.974 82.546 37.58 83.779 39.037 85.5 41.5 87.739 44.703 89.457 47.919 90.505 49.664 90.822 50.191 90.865 50.833 90.635 51.404L82.478 69.08C82.134 69.93 80.923 69.909 80.61 69.046L71.069 43.748C70.81 43.035 70.977 42.237 71.5 41.687L77.475 35.673Z" fill="#2257bf" data-fill-palette-color="accent"></path><path fill-rule="evenodd" clip-rule="evenodd" d="M18.863 23.169C19.626 22.272 20.992 22.229 21.814 23.073L37.899 39.593C38.439 40.148 38.61 40.963 38.34 41.687L19.194 93.055C18.874 93.914 17.663 93.925 17.327 93.072L0.139 49.406C-0.086 48.834-0.037 48.193 0.28 47.667 1.685 45.331 5.813 38.622 9.283 34.5 13.514 29.474 17.015 25.346 18.863 23.169ZM22.308 35.673C21.503 34.828 20.162 34.854 19.378 35.683 19.284 35.783 19.191 35.885 19.088 35.975 17.237 37.581 16.004 39.037 14.283 41.5 12.044 44.703 10.325 47.919 9.277 49.664 8.96 50.192 8.917 50.833 9.148 51.404L17.305 69.08C17.649 69.93 18.86 69.909 19.172 69.046L28.714 43.748C28.973 43.035 28.806 42.237 28.283 41.687L22.308 35.673Z" fill="#2257bf" data-fill-palette-color="accent"></path></svg></g></svg></g></svg></g></svg></g></svg></g></svg></g><defs></defs></svg><rect width="95.25134841677765" height="95.481" fill="none" stroke="none" visibility="hidden"></rect></g></svg></g></svg>