<?xml version="1.0" standalone="no"?><!DOCTYPE svg PUBLIC "-//W3C//DTD SVG 1.1//EN" "http://www.w3.org/Graphics/SVG/1.1/DTD/svg11.dtd"><svg t="1683126817416" class="icon" viewBox="0 0 1024 1024" version="1.1" xmlns="http://www.w3.org/2000/svg" p-id="2637" xmlns:xlink="http://www.w3.org/1999/xlink" width="200" height="200"><path d="M416 620.8c85.333333 0 164.266667-8.533333 228.266667-23.466667 17.066667-66.133333 57.6-132.266667 91.733333-185.6 8.533333-12.8 14.933333-23.466667 21.333333-36.266666-57.6 38.4-189.866667 64-343.466666 64-164.266667 0-302.933333-29.866667-354.133334-72.533334-4.266667-6.4-17.066667-2.133333-17.066666 8.533334V512c0 59.733333 166.4 108.8 373.333333 108.8z" p-id="2638"></path><path d="M42.666667 279.466667a373.333333 108.8 0 1 0 746.666666 0 373.333333 108.8 0 1 0-746.666666 0Z" p-id="2639"></path><path d="M635.733333 652.8c-61.866667 12.8-138.666667 21.333333-219.733333 21.333333-164.266667 0-302.933333-29.866667-354.133333-72.533333-6.4-6.4-19.2-2.133333-19.2 6.4v136.533333C42.666667 804.266667 209.066667 853.333333 416 853.333333c115.2 0 219.733333-14.933333 288-38.4-38.4-36.266667-68.266667-89.6-68.266667-162.133333zM861.866667 396.8c-8.533333-14.933333-32-14.933333-40.533334 0-38.4 68.266667-121.6 174.933333-121.6 258.133333 0 87.466667 57.6 130.133333 104.533334 145.066667v17.066667c0 19.2 14.933333 34.133333 34.133333 34.133333s34.133333-14.933333 34.133333-34.133333v-17.066667c46.933333-14.933333 104.533333-59.733333 104.533334-145.066667 6.4-83.2-76.8-189.866667-115.2-258.133333z" p-id="2640"></path></svg>