<?xml version="1.0" standalone="no"?><!DOCTYPE svg PUBLIC "-//W3C//DTD SVG 1.1//EN" "http://www.w3.org/Graphics/SVG/1.1/DTD/svg11.dtd"><svg t="1687543276314" class="icon" viewBox="0 0 1024 1024" version="1.1" xmlns="http://www.w3.org/2000/svg" p-id="30517" xmlns:xlink="http://www.w3.org/1999/xlink" width="200" height="200"><path d="M923.2 672H800l-238.4-137.6h-1.6V416h68.16A75.84 75.84 0 0 0 704 340.16V107.84A75.84 75.84 0 0 0 628.16 32h-232.32A75.84 75.84 0 0 0 320 107.84v232.64A75.84 75.84 0 0 0 395.84 416h68.16v117.76h-1.6L224 672H100.8A69.12 69.12 0 0 0 32 740.8v182.4A69.12 69.12 0 0 0 100.8 992h182.4A69.12 69.12 0 0 0 352 923.2v-182.4a67.84 67.84 0 0 0-6.4-28.16l164.48-96h3.2l164.48 96a67.84 67.84 0 0 0-6.4 28.16v182.4A69.12 69.12 0 0 0 740.8 992h182.4A69.12 69.12 0 0 0 992 923.2v-182.4A69.12 69.12 0 0 0 923.2 672z" fill="#231F20" p-id="30518"></path></svg>