<?xml version="1.0" standalone="no"?><!DOCTYPE svg PUBLIC "-//W3C//DTD SVG 1.1//EN" "http://www.w3.org/Graphics/SVG/1.1/DTD/svg11.dtd"><svg t="1687542415264" class="icon" viewBox="0 0 1028 1024" version="1.1" xmlns="http://www.w3.org/2000/svg" p-id="3966" xmlns:xlink="http://www.w3.org/1999/xlink" width="200.78125" height="200"><path d="M965.426743 541.836386C955.038827 339.605751 811.004092 169.469444 615.449711 124.450173 601.95866 121.34435 588.504235 129.763241 585.398411 143.254293 582.292589 156.745345 590.711479 170.19977 604.20253 173.305593 778.021961 213.321184 906.125274 364.639021 915.359418 544.408179 916.0696 558.233888 927.853267 568.866125 941.678976 568.155945 955.504687 567.445764 966.136924 555.662097 965.426743 541.836386L965.426743 541.836386ZM386.693427 130.952194C195.197668 186.776034 61.059829 362.94826 61.059829 565.408546 61.059829 609.513775 67.378292 652.800892 79.687136 694.294543 83.62428 707.566827 97.575277 715.134451 110.847561 711.197308 124.119844 707.260164 131.68747 693.309167 127.750327 680.036883 116.810772 643.159168 111.193162 604.673523 111.193162 565.408546 111.193162 385.380604 230.48234 228.710122 400.724023 179.082159 414.014746 175.207717 421.648149 161.292601 417.773707 148.001879 413.899266 134.711156 399.984149 127.077752 386.693427 130.952194L386.693427 130.952194ZM196.356828 888.107575C280.412745 970.736506 393.28759 1017.894018 513.545299 1017.894018 643.321289 1017.894018 764.304599 962.930765 849.557581 868.463038 858.832625 858.185481 858.019927 842.334965 847.742372 833.059923 837.464815 823.784879 821.6143 824.597574 812.339255 834.875132 736.494948 918.917229 628.982336 967.760685 513.545299 967.760685 406.569346 967.760685 306.273973 925.858699 231.501677 852.355782 221.62909 842.650801 205.758337 842.786671 196.053355 852.659255 186.348373 862.53184 186.484242 878.402594 196.356828 888.107575L196.356828 888.107575ZM498.280341 285.176068C571.138502 285.176068 630.201709 226.11286 630.201709 153.254701 630.201709 80.396541 571.138502 21.333333 498.280341 21.333333 425.422182 21.333333 366.358974 80.396541 366.358974 153.254701 366.358974 226.11286 425.422182 285.176068 498.280341 285.176068L498.280341 285.176068ZM498.280341 235.042735C453.110059 235.042735 416.492307 198.424985 416.492307 153.254701 416.492307 108.084417 453.110059 71.466667 498.280341 71.466667 543.450626 71.466667 580.068375 108.084417 580.068375 153.254701 580.068375 198.424985 543.450626 235.042735 498.280341 235.042735L498.280341 235.042735ZM131.921367 926.304273C204.779527 926.304273 263.842735 867.241065 263.842735 794.382906 263.842735 721.524747 204.779527 662.461538 131.921367 662.461538 59.063208 662.461538 0 721.524747 0 794.382906 0 867.241065 59.063208 926.304273 131.921367 926.304273L131.921367 926.304273ZM131.921367 876.17094C86.751084 876.17094 50.133333 839.55319 50.133333 794.382906 50.133333 749.212623 86.751084 712.594871 131.921367 712.594871 177.091651 712.594871 213.709402 749.212623 213.709402 794.382906 213.709402 839.55319 177.091651 876.17094 131.921367 876.17094L131.921367 876.17094ZM895.169231 895.774359C968.02739 895.774359 1027.090598 836.711151 1027.090598 763.852992 1027.090598 690.994831 968.02739 631.931625 895.169231 631.931625 822.311072 631.931625 763.247863 690.994831 763.247863 763.852992 763.247863 836.711151 822.311072 895.774359 895.169231 895.774359L895.169231 895.774359ZM895.169231 845.641026C849.998946 845.641026 813.381197 809.023275 813.381197 763.852992 813.381197 718.682707 849.998946 682.064958 895.169231 682.064958 940.339516 682.064958 976.957265 718.682707 976.957265 763.852992 976.957265 809.023275 940.339516 845.641026 895.169231 845.641026L895.169231 845.641026Z" fill="#272636" p-id="3967"></path></svg>